<?xml version="1.0" encoding="UTF-8" standalone="no"?>
<svg xmlns:xlink="http://www.w3.org/1999/xlink" height="14.25px" width="113.75px" xmlns="http://www.w3.org/2000/svg">
  <g transform="matrix(1.0, 0.0, 0.0, 1.0, 3.4, -2.55)">
    <use data-characterId="104" height="12.0" transform="matrix(1.0, 0.0, 0.0, 1.0, 0.0, 4.15)" width="109.9" xlink:href="#shape0"/>
    <use data-characterId="101" height="12.1" transform="matrix(1.0, 0.0, 0.0, 1.0, 35.35, 4.1)" width="41.65" xlink:href="#text0"/>
  </g>
  <defs>
    <g id="shape0" transform="matrix(1.0, 0.0, 0.0, 1.0, 0.0, -4.15)">
      <path d="M15.0 6.05 L19.9 6.05 9.6 16.15 0.0 6.15 4.95 6.15 4.95 4.15 15.0 4.15 15.0 6.05" fill="#d0d0d0" fill-rule="evenodd" stroke="none"/>
      <path d="M105.0 6.05 L109.9 6.05 99.6 16.15 90.0 6.15 94.95 6.15 94.95 4.15 105.0 4.15 105.0 6.05" fill="#d0d0d0" fill-rule="evenodd" stroke="none"/>
    </g>
    <g id="text0" transform="matrix(1.0, 0.0, 0.0, 1.0, -51.35, -2.1)">
      <g transform="matrix(1.0, 0.0, 0.0, 1.0, 50.15, 0.0)">
        <use fill="#ffffff" height="12.1" transform="matrix(0.0137, 0.0, 0.0, 0.0137, 0.0, 13.0)" width="41.65" xlink:href="#font_Gotham_Bold_M0"/>
        <use fill="#ffffff" height="12.1" transform="matrix(0.0137, 0.0, 0.0, 0.0137, 12.15, 13.0)" width="41.65" xlink:href="#font_Gotham_Bold_O0"/>
        <use fill="#ffffff" height="12.1" transform="matrix(0.0137, 0.0, 0.0, 0.0137, 24.05, 13.0)" width="41.65" xlink:href="#font_Gotham_Bold_R0"/>
        <use fill="#ffffff" height="12.1" transform="matrix(0.0137, 0.0, 0.0, 0.0137, 34.15, 13.0)" width="41.65" xlink:href="#font_Gotham_Bold_E0"/>
      </g>
    </g>
    <g id="font_Gotham_Bold_M0">
      <path d="M804.0 0.0 L804.0 0.0 804.0 -716.0 634.5 -716.0 445.0 -413.0 255.5 -716.0 84.0 -716.0 84.0 0.0 240.0 0.0 240.0 -464.5 441.0 -161.5 445.0 -161.5 648.0 -467.5 648.0 0.0 804.0 0.0 804.0 0.0" fill-rule="evenodd" stroke="none"/>
    </g>
    <g id="font_Gotham_Bold_O0">
      <path d="M648.5 -356.0 L648.5 -356.0 Q647.0 -262.5 589.0 -200.5 531.0 -138.0 435.0 -135.5 339.0 -138.0 280.0 -201.5 221.5 -264.5 219.5 -358.0 L219.5 -360.0 Q221.0 -453.5 279.0 -515.5 337.0 -578.0 433.0 -580.5 529.0 -578.0 588.0 -514.5 646.5 -451.5 648.5 -358.0 L648.5 -356.0 648.5 -356.0 M815.5 -358.0 L815.5 -358.0 815.5 -360.0 Q812.5 -515.0 707.5 -619.5 603.0 -723.5 435.0 -727.5 267.0 -723.5 161.5 -618.0 55.5 -513.0 52.5 -358.0 L52.5 -356.0 Q55.5 -201.0 160.5 -96.5 265.0 7.5 433.0 11.5 601.0 7.5 706.5 -98.0 812.5 -203.0 815.5 -358.0 L815.5 -358.0" fill-rule="evenodd" stroke="none"/>
    </g>
    <g id="font_Gotham_Bold_R0">
      <path d="M524.0 -468.5 L524.0 -468.5 Q521.5 -373.0 403.5 -367.5 L244.0 -367.5 244.0 -572.0 400.5 -572.0 Q520.0 -571.5 524.0 -470.5 L524.0 -468.5 524.0 -468.5 M705.5 0.0 L705.5 0.0 530.5 -255.0 Q599.5 -280.0 641.0 -335.5 683.0 -390.5 684.0 -476.5 L684.0 -478.5 Q683.0 -590.0 612.0 -652.5 541.5 -715.0 413.5 -716.0 L88.0 -716.0 88.0 0.0 244.0 0.0 244.0 -228.5 367.5 -228.5 521.0 0.0 705.5 0.0 705.5 0.0" fill-rule="evenodd" stroke="none"/>
    </g>
    <g id="font_Gotham_Bold_E0">
      <path d="M633.0 0.0 L633.0 0.0 633.0 -140.0 244.0 -140.0 244.0 -292.0 582.0 -292.0 582.0 -432.0 244.0 -432.0 244.0 -576.0 628.0 -576.0 628.0 -716.0 88.0 -716.0 88.0 0.0 633.0 0.0 633.0 0.0" fill-rule="evenodd" stroke="none"/>
    </g>
  </defs>
</svg>
