<?xml version="1.0" encoding="UTF-8" standalone="no"?>
<svg xmlns:xlink="http://www.w3.org/1999/xlink" height="12.1px" width="46.7px" xmlns="http://www.w3.org/2000/svg">
  <g transform="matrix(1.0, 0.0, 0.0, 1.0, -48.65, -2.1)">
    <g transform="matrix(1.0, 0.0, 0.0, 1.0, 47.4, 0.0)">
      <use fill="#ffffff" height="12.1" transform="matrix(0.0137, 0.0, 0.0, 0.0137, 0.0, 13.0)" width="46.7" xlink:href="#font_Gotham_Bold_D0"/>
      <use fill="#ffffff" height="12.1" transform="matrix(0.0137, 0.0, 0.0, 0.0137, 10.95, 13.0)" width="46.7" xlink:href="#font_Gotham_Bold_O0"/>
      <use fill="#ffffff" height="12.1" transform="matrix(0.0137, 0.0, 0.0, 0.0137, 22.3, 13.0)" width="46.7" xlink:href="#font_Gotham_Bold_W0"/>
      <use fill="#ffffff" height="12.1" transform="matrix(0.0137, 0.0, 0.0, 0.0137, 38.0, 13.0)" width="46.7" xlink:href="#font_Gotham_Bold_N0"/>
    </g>
  </g>
  <defs>
    <g id="font_Gotham_Bold_D0">
      <path d="M580.5 -356.0 L580.5 -356.0 Q579.0 -260.0 521.0 -203.0 463.0 -145.5 365.5 -144.0 L244.0 -144.0 244.0 -572.0 365.5 -572.0 Q463.0 -570.5 521.0 -512.0 579.0 -454.0 580.5 -358.0 L580.5 -356.0 580.5 -356.0 M747.5 -358.0 L747.5 -358.0 747.5 -360.0 Q745.0 -513.5 640.5 -613.0 536.5 -712.5 365.5 -716.0 L88.0 -716.0 88.0 0.0 365.5 0.0 Q536.5 -3.5 640.5 -104.0 745.0 -204.5 747.5 -358.0 L747.5 -358.0" fill-rule="evenodd" stroke="none"/>
    </g>
    <g id="font_Gotham_Bold_O0">
      <path d="M648.5 -356.0 L648.5 -356.0 Q647.0 -262.5 589.0 -200.5 531.0 -138.0 435.0 -135.5 339.0 -138.0 280.0 -201.5 221.5 -264.5 219.5 -358.0 L219.5 -360.0 Q221.0 -453.5 279.0 -515.5 337.0 -578.0 433.0 -580.5 529.0 -578.0 588.0 -514.5 646.5 -451.5 648.5 -358.0 L648.5 -356.0 648.5 -356.0 M815.5 -358.0 L815.5 -358.0 815.5 -360.0 Q812.5 -515.0 707.5 -619.5 603.0 -723.5 435.0 -727.5 267.0 -723.5 161.5 -618.0 55.5 -513.0 52.5 -358.0 L52.5 -356.0 Q55.5 -201.0 160.5 -96.5 265.0 7.5 433.0 11.5 601.0 7.5 706.5 -98.0 812.5 -203.0 815.5 -358.0 L815.5 -358.0" fill-rule="evenodd" stroke="none"/>
    </g>
    <g id="font_Gotham_Bold_W0">
      <path d="M1118.0 -716.0 L1118.0 -716.0 953.5 -716.0 805.0 -232.0 644.0 -720.0 509.0 -720.0 348.0 -232.5 199.5 -716.0 30.5 -716.0 275.5 4.0 412.5 4.0 574.5 -463.5 736.0 4.0 873.5 4.0 1118.0 -716.0 1118.0 -716.0" fill-rule="evenodd" stroke="none"/>
    </g>
    <g id="font_Gotham_Bold_N0">
      <path d="M724.0 0.0 L724.0 0.0 724.0 -716.0 568.0 -716.0 568.0 -275.0 229.5 -716.0 84.0 -716.0 84.0 0.0 240.0 0.0 240.0 -455.0 589.5 0.0 724.0 0.0 724.0 0.0" fill-rule="evenodd" stroke="none"/>
    </g>
  </defs>
</svg>
