<?xml version="1.0" encoding="UTF-8" standalone="no"?>
<svg xmlns:xlink="http://www.w3.org/1999/xlink" height="20.75px" width="125.55px" xmlns="http://www.w3.org/2000/svg">
  <g transform="matrix(1.0, 0.0, 0.0, 1.0, -31.45, -4.8)">
    <g transform="matrix(1.0, 0.0, 0.0, 1.0, 0.0, 0.0)">
      <use fill="#ffffff" height="20.75" transform="matrix(0.0254, 0.0, 0.0, 0.0254, 30.0, 24.0)" width="125.55" xlink:href="#font_Gotham_Bold_G0"/>
      <use fill="#ffffff" height="20.75" transform="matrix(0.0254, 0.0, 0.0, 0.0254, 50.4, 24.0)" width="125.55" xlink:href="#font_Gotham_Bold_A0"/>
      <use fill="#ffffff" height="20.75" transform="matrix(0.0254, 0.0, 0.0, 0.0254, 70.9, 24.0)" width="125.55" xlink:href="#font_Gotham_Bold_L0"/>
      <use fill="#ffffff" height="20.75" transform="matrix(0.0254, 0.0, 0.0, 0.0254, 87.0, 24.0)" width="125.55" xlink:href="#font_Gotham_Bold_L0"/>
      <use fill="#ffffff" height="20.75" transform="matrix(0.0254, 0.0, 0.0, 0.0254, 103.1, 24.0)" width="125.55" xlink:href="#font_Gotham_Bold_E0"/>
      <use fill="#ffffff" height="20.75" transform="matrix(0.0254, 0.0, 0.0, 0.0254, 120.5, 24.0)" width="125.55" xlink:href="#font_Gotham_Bold_R0"/>
      <use fill="#ffffff" height="20.75" transform="matrix(0.0254, 0.0, 0.0, 0.0254, 138.65, 24.0)" width="125.55" xlink:href="#font_Gotham_Bold_Y0"/>
    </g>
  </g>
  <defs>
    <g id="font_Gotham_Bold_G0">
      <path d="M739.5 -102.0 L739.5 -102.0 739.5 -412.0 426.0 -412.0 426.0 -276.0 584.5 -276.0 584.5 -174.5 Q523.5 -131.5 436.0 -131.5 339.5 -133.5 280.5 -196.0 221.5 -258.0 219.5 -358.0 L219.5 -360.0 Q221.5 -453.0 279.5 -515.5 337.0 -578.0 425.0 -580.5 486.0 -580.0 529.0 -561.5 572.0 -543.0 612.5 -509.0 L713.5 -628.0 Q658.0 -676.5 591.5 -702.0 525.0 -727.5 430.0 -727.5 264.5 -723.5 160.0 -618.0 55.5 -513.0 52.5 -358.0 L52.5 -356.0 Q55.0 -194.5 158.0 -93.0 261.0 8.5 431.0 11.5 529.0 10.5 606.5 -21.5 683.5 -54.0 739.5 -102.0 L739.5 -102.0" fill-rule="evenodd" stroke="none"/>
    </g>
    <g id="font_Gotham_Bold_A0">
      <path d="M497.5 -299.5 L497.5 -299.5 307.0 -299.5 402.5 -531.0 497.5 -299.5 497.5 -299.5 M784.5 0.0 L784.5 0.0 477.0 -720.0 332.0 -720.0 24.5 0.0 185.5 0.0 251.0 -160.5 554.0 -160.5 619.5 0.0 784.5 0.0 784.5 0.0" fill-rule="evenodd" stroke="none"/>
    </g>
    <g id="font_Gotham_Bold_L0">
      <path d="M601.5 -0.5 L601.5 -0.5 601.5 -143.5 244.0 -143.5 244.0 -716.0 88.0 -716.0 88.0 -0.5 601.5 -0.5 601.5 -0.5" fill-rule="evenodd" stroke="none"/>
    </g>
    <g id="font_Gotham_Bold_E0">
      <path d="M633.0 0.0 L633.0 0.0 633.0 -140.0 244.0 -140.0 244.0 -292.0 582.0 -292.0 582.0 -432.0 244.0 -432.0 244.0 -576.0 628.0 -576.0 628.0 -716.0 88.0 -716.0 88.0 0.0 633.0 0.0 633.0 0.0" fill-rule="evenodd" stroke="none"/>
    </g>
    <g id="font_Gotham_Bold_R0">
      <path d="M524.0 -468.5 L524.0 -468.5 Q521.5 -373.0 403.5 -367.5 L244.0 -367.5 244.0 -572.0 400.5 -572.0 Q520.0 -571.5 524.0 -470.5 L524.0 -468.5 524.0 -468.5 M705.5 0.0 L705.5 0.0 530.5 -255.0 Q599.5 -280.0 641.0 -335.5 683.0 -390.5 684.0 -476.5 L684.0 -478.5 Q683.0 -590.0 612.0 -652.5 541.5 -715.0 413.5 -716.0 L88.0 -716.0 88.0 0.0 244.0 0.0 244.0 -228.5 367.5 -228.5 521.0 0.0 705.5 0.0 705.5 0.0" fill-rule="evenodd" stroke="none"/>
    </g>
    <g id="font_Gotham_Bold_Y0">
      <path d="M719.5 -716.0 L719.5 -716.0 540.5 -716.0 367.0 -428.5 197.0 -716.0 12.5 -716.0 288.0 -282.5 288.0 0.0 444.0 0.0 444.0 -285.5 719.5 -716.0 719.5 -716.0" fill-rule="evenodd" stroke="none"/>
    </g>
  </defs>
</svg>
