<?xml version="1.0" encoding="UTF-8" standalone="no"?>
<svg xmlns:xlink="http://www.w3.org/1999/xlink" height="20.75px" width="183.9px" xmlns="http://www.w3.org/2000/svg">
  <g transform="matrix(1.0, 0.0, 0.0, 1.0, -1.8, -4.8)">
    <g transform="matrix(1.0, 0.0, 0.0, 1.0, 0.0, 0.0)">
      <use fill="#ffffff" height="20.75" transform="matrix(0.0254, 0.0, 0.0, 0.0254, 0.0, 24.0)" width="183.9" xlink:href="#font_Gotham_Bold_C0"/>
      <use fill="#ffffff" height="20.75" transform="matrix(0.0254, 0.0, 0.0, 0.0254, 19.2, 24.0)" width="183.9" xlink:href="#font_Gotham_Bold_H0"/>
      <use fill="#ffffff" height="20.75" transform="matrix(0.0254, 0.0, 0.0, 0.0254, 38.95, 24.0)" width="183.9" xlink:href="#font_Gotham_Bold_A0"/>
      <use fill="#ffffff" height="20.75" transform="matrix(0.0254, 0.0, 0.0, 0.0254, 59.5, 24.0)" width="183.9" xlink:href="#font_Gotham_Bold_R0"/>
      <use fill="#ffffff" height="20.75" transform="matrix(0.0254, 0.0, 0.0, 0.0254, 78.3, 24.0)" width="183.9" xlink:href="#font_Gotham_Bold_A0"/>
      <use fill="#ffffff" height="20.75" transform="matrix(0.0254, 0.0, 0.0, 0.0254, 97.65, 24.0)" width="183.9" xlink:href="#font_Gotham_Bold_C0"/>
      <use fill="#ffffff" height="20.75" transform="matrix(0.0254, 0.0, 0.0, 0.0254, 116.85, 24.0)" width="183.9" xlink:href="#font_Gotham_Bold_T0"/>
      <use fill="#ffffff" height="20.75" transform="matrix(0.0254, 0.0, 0.0, 0.0254, 133.7, 24.0)" width="183.9" xlink:href="#font_Gotham_Bold_E0"/>
      <use fill="#ffffff" height="20.75" transform="matrix(0.0254, 0.0, 0.0, 0.0254, 151.1, 24.0)" width="183.9" xlink:href="#font_Gotham_Bold_R0"/>
      <use fill="#ffffff" height="20.75" transform="matrix(0.0254, 0.0, 0.0, 0.0254, 169.9, 24.0)" width="183.9" xlink:href="#font_Gotham_Bold_S0"/>
    </g>
  </g>
  <defs>
    <g id="font_Gotham_Bold_C0">
      <path d="M716.5 -118.0 L716.5 -118.0 616.0 -218.5 Q575.0 -180.0 531.5 -158.0 487.5 -136.0 427.5 -135.5 334.0 -138.0 277.5 -201.5 221.0 -264.5 219.5 -358.0 L219.5 -360.0 Q221.5 -453.5 278.0 -515.5 335.0 -578.0 427.5 -580.5 531.5 -577.5 611.0 -500.5 L711.0 -615.5 Q662.5 -666.0 595.5 -696.5 528.5 -727.0 428.5 -727.5 260.5 -723.5 158.0 -618.0 55.0 -513.0 52.5 -358.0 L52.5 -356.0 Q55.5 -199.5 158.0 -96.0 260.5 7.5 422.5 11.5 524.5 11.0 593.5 -23.0 662.5 -57.5 716.5 -118.0 L716.5 -118.0" fill-rule="evenodd" stroke="none"/>
    </g>
    <g id="font_Gotham_Bold_H0">
      <path d="M692.0 0.0 L692.0 0.0 692.0 -716.0 536.0 -716.0 536.0 -435.5 244.0 -435.5 244.0 -716.0 88.0 -716.0 88.0 0.0 244.0 0.0 244.0 -288.5 536.0 -288.5 536.0 0.0 692.0 0.0 692.0 0.0" fill-rule="evenodd" stroke="none"/>
    </g>
    <g id="font_Gotham_Bold_A0">
      <path d="M497.5 -299.5 L497.5 -299.5 307.0 -299.5 402.5 -531.0 497.5 -299.5 497.5 -299.5 M784.5 0.0 L784.5 0.0 477.0 -720.0 332.0 -720.0 24.5 0.0 185.5 0.0 251.0 -160.5 554.0 -160.5 619.5 0.0 784.5 0.0 784.5 0.0" fill-rule="evenodd" stroke="none"/>
    </g>
    <g id="font_Gotham_Bold_R0">
      <path d="M524.0 -468.5 L524.0 -468.5 Q521.5 -373.0 403.5 -367.5 L244.0 -367.5 244.0 -572.0 400.5 -572.0 Q520.0 -571.5 524.0 -470.5 L524.0 -468.5 524.0 -468.5 M705.5 0.0 L705.5 0.0 530.5 -255.0 Q599.5 -280.0 641.0 -335.5 683.0 -390.5 684.0 -476.5 L684.0 -478.5 Q683.0 -590.0 612.0 -652.5 541.5 -715.0 413.5 -716.0 L88.0 -716.0 88.0 0.0 244.0 0.0 244.0 -228.5 367.5 -228.5 521.0 0.0 705.5 0.0 705.5 0.0" fill-rule="evenodd" stroke="none"/>
    </g>
    <g id="font_Gotham_Bold_T0">
      <path d="M626.0 -568.5 L626.0 -568.5 626.0 -715.5 34.0 -715.5 34.0 -568.5 252.0 -568.5 252.0 0.0 408.0 0.0 408.0 -568.5 626.0 -568.5 626.0 -568.5" fill-rule="evenodd" stroke="none"/>
    </g>
    <g id="font_Gotham_Bold_E0">
      <path d="M633.0 0.0 L633.0 0.0 633.0 -140.0 244.0 -140.0 244.0 -292.0 582.0 -292.0 582.0 -432.0 244.0 -432.0 244.0 -576.0 628.0 -576.0 628.0 -716.0 88.0 -716.0 88.0 0.0 633.0 0.0 633.0 0.0" fill-rule="evenodd" stroke="none"/>
    </g>
    <g id="font_Gotham_Bold_S0">
      <path d="M604.0 -211.0 L604.0 -211.0 604.0 -213.0 Q603.5 -305.5 545.0 -354.0 486.5 -402.5 376.5 -429.0 284.5 -451.5 251.0 -470.5 218.0 -489.5 220.0 -523.5 L220.0 -525.5 Q221.0 -583.0 313.5 -588.5 405.5 -586.0 501.0 -517.5 L582.5 -636.5 Q474.0 -726.0 315.5 -727.5 203.0 -726.5 134.5 -668.5 66.0 -610.5 64.0 -511.0 L64.0 -509.0 Q65.5 -405.0 128.5 -359.5 192.0 -313.5 302.0 -289.0 390.5 -267.0 420.5 -247.0 450.0 -226.5 448.0 -197.5 L448.0 -195.5 Q444.5 -130.0 343.5 -127.5 222.0 -131.0 128.0 -215.0 L35.5 -103.0 Q169.5 12.0 340.0 11.5 459.0 11.0 530.5 -46.0 602.0 -103.5 604.0 -211.0 L604.0 -211.0" fill-rule="evenodd" stroke="none"/>
    </g>
  </defs>
</svg>
