<?xml version="1.0" encoding="UTF-8" standalone="no"?>
<svg xmlns:xlink="http://www.w3.org/1999/xlink" height="13.5px" width="81.8px" xmlns="http://www.w3.org/2000/svg">
  <g transform="matrix(1.0, 0.0, 0.0, 1.0, -31.6, -1.7)">
    <g transform="matrix(1.0, 0.0, 0.0, 1.0, 31.4, 0.0)">
      <use fill="#333333" height="13.5" transform="matrix(0.0137, 0.0, 0.0, 0.0137, 0.0, 14.0)" width="81.8" xlink:href="#font_Century_Gothic_S0"/>
      <use fill="#333333" height="13.5" transform="matrix(0.0137, 0.0, 0.0, 0.0137, 6.95, 14.0)" width="81.8" xlink:href="#font_Century_Gothic_T0"/>
      <use fill="#333333" height="13.5" transform="matrix(0.0137, 0.0, 0.0, 0.0137, 12.9, 14.0)" width="81.8" xlink:href="#font_Century_Gothic_A0"/>
      <use fill="#333333" height="13.5" transform="matrix(0.0137, 0.0, 0.0, 0.0137, 23.25, 14.0)" width="81.8" xlink:href="#font_Century_Gothic_T0"/>
      <use fill="#333333" height="13.5" transform="matrix(0.0137, 0.0, 0.0, 0.0137, 29.2, 14.0)" width="81.8" xlink:href="#font_Century_Gothic_E0"/>
      <use fill="#333333" height="13.5" transform="matrix(0.0137, 0.0, 0.0, 0.0137, 36.7, 14.0)" width="81.8" xlink:href="#font_Century_Gothic_:0"/>
      <use fill="#333333" height="13.5" transform="matrix(0.0137, 0.0, 0.0, 0.0137, 44.5, 14.0)" width="81.8" xlink:href="#font_Century_Gothic_S0"/>
      <use fill="#333333" height="13.5" transform="matrix(0.0137, 0.0, 0.0, 0.0137, 51.45, 14.0)" width="81.8" xlink:href="#font_Century_Gothic_T0"/>
      <use fill="#333333" height="13.5" transform="matrix(0.0137, 0.0, 0.0, 0.0137, 57.4, 14.0)" width="81.8" xlink:href="#font_Century_Gothic_A0"/>
      <use fill="#333333" height="13.5" transform="matrix(0.0137, 0.0, 0.0, 0.0137, 67.75, 14.0)" width="81.8" xlink:href="#font_Century_Gothic_R0"/>
      <use fill="#333333" height="13.5" transform="matrix(0.0137, 0.0, 0.0, 0.0137, 76.25, 14.0)" width="81.8" xlink:href="#font_Century_Gothic_T0"/>
    </g>
  </g>
  <defs>
    <g id="font_Century_Gothic_S0">
      <path d="M16.0 -138.5 L16.0 -138.5 Q62.0 -55.0 116.0 -19.5 170.0 16.0 236.5 16.0 323.0 16.0 383.5 -43.0 444.0 -102.0 444.0 -182.0 444.0 -237.5 409.5 -292.5 375.0 -347.5 282.0 -418.0 203.5 -477.5 189.5 -491.5 163.5 -517.5 154.0 -540.0 144.0 -562.5 144.0 -586.5 144.0 -626.0 172.0 -653.0 199.5 -680.0 243.5 -680.0 277.5 -680.0 306.5 -662.0 335.0 -644.0 376.0 -588.0 L436.0 -633.5 Q385.5 -701.5 340.0 -726.5 295.0 -752.0 243.0 -752.0 193.5 -752.0 152.0 -729.5 110.0 -707.0 87.0 -668.5 64.0 -629.5 64.0 -582.0 64.0 -522.5 102.5 -471.5 124.5 -440.5 215.5 -371.0 305.5 -302.0 339.5 -253.0 364.0 -217.5 364.0 -180.5 364.0 -148.0 347.0 -119.5 330.5 -90.5 298.0 -73.0 266.0 -56.0 229.5 -56.0 144.0 -56.0 78.5 -176.0 L16.0 -138.5" fill-rule="evenodd" stroke="none"/>
    </g>
    <g id="font_Century_Gothic_T0">
      <path d="M180.0 -664.0 L180.0 -664.0 180.0 0.0 256.0 0.0 256.0 -664.0 420.0 -664.0 420.0 -736.0 16.0 -736.0 16.0 -664.0 180.0 -664.0" fill-rule="evenodd" stroke="none"/>
    </g>
    <g id="font_Century_Gothic_A0">
      <path d="M507.0 -312.0 L507.0 -312.0 255.0 -312.0 382.0 -579.5 507.0 -312.0 M372.0 -736.0 L372.0 -736.0 24.0 0.0 107.5 0.0 221.0 -240.0 540.5 -240.0 652.5 0.0 736.0 0.0 392.0 -736.0 372.0 -736.0" fill-rule="evenodd" stroke="none"/>
    </g>
    <g id="font_Century_Gothic_E0">
      <path d="M88.0 0.0 L88.0 0.0 504.0 0.0 504.0 -72.0 164.0 -72.0 164.0 -360.0 504.0 -360.0 504.0 -432.0 164.0 -432.0 164.0 -664.0 508.0 -664.0 508.0 -736.0 88.0 -736.0 88.0 0.0" fill-rule="evenodd" stroke="none"/>
    </g>
    <g id="font_Century_Gothic_:0">
      <path d="M154.0 -112.0 L154.0 -112.0 Q128.5 -112.0 110.0 -94.0 92.0 -76.0 92.0 -50.0 92.0 -24.5 110.0 -6.0 128.5 12.0 154.0 12.0 179.5 12.0 198.0 -6.0 216.0 -24.5 216.0 -50.0 216.0 -76.0 198.0 -94.0 179.5 -112.0 154.0 -112.0 M154.0 -556.0 L154.0 -556.0 Q128.5 -556.0 110.0 -537.5 92.0 -519.5 92.0 -494.0 92.0 -468.0 110.0 -450.0 128.5 -432.0 154.0 -432.0 179.5 -432.0 198.0 -450.0 216.0 -468.0 216.0 -494.0 216.0 -520.0 198.0 -538.0 179.5 -556.0 154.0 -556.0" fill-rule="evenodd" stroke="none"/>
    </g>
    <g id="font_Century_Gothic_R0">
      <path d="M295.0 -664.0 L295.0 -664.0 Q369.0 -664.0 401.0 -651.0 433.0 -638.0 452.5 -607.5 472.0 -577.0 472.0 -539.5 472.0 -501.0 452.5 -470.0 433.5 -439.0 398.5 -425.0 364.0 -411.0 292.0 -411.0 L168.0 -412.0 168.0 -664.0 295.0 -664.0 M92.0 0.0 L92.0 0.0 168.0 0.0 168.0 -340.0 204.0 -340.0 465.5 0.0 560.0 0.0 299.0 -340.0 Q391.0 -340.5 443.5 -364.0 495.5 -387.5 524.0 -433.0 552.0 -479.0 552.0 -539.0 552.0 -611.5 511.0 -661.0 470.0 -711.0 404.5 -726.0 361.0 -736.0 238.5 -736.0 L92.0 -736.0 92.0 0.0" fill-rule="evenodd" stroke="none"/>
    </g>
  </defs>
</svg>
