<?xml version="1.0" encoding="UTF-8" standalone="no"?>
<svg xmlns:xlink="http://www.w3.org/1999/xlink" height="9.2px" width="33.7px" xmlns="http://www.w3.org/2000/svg">
  <g transform="matrix(1.0, 0.0, 0.0, 1.0, -0.6, -1.2)">
    <g transform="matrix(1.0, 0.0, 0.0, 1.0, 0.0, 0.0)">
      <use fill="#ffffff" height="9.2" transform="matrix(0.0098, 0.0, 0.0, 0.0098, 0.0, 9.0)" width="33.7" xlink:href="#font_Gotham_Bold_C0"/>
      <use fill="#ffffff" height="9.2" transform="matrix(0.0098, 0.0, 0.0, 0.0098, 7.4, 9.0)" width="33.7" xlink:href="#font_Gotham_Bold_L0"/>
      <use fill="#ffffff" height="9.2" transform="matrix(0.0098, 0.0, 0.0, 0.0098, 13.15, 9.0)" width="33.7" xlink:href="#font_Gotham_Bold_O0"/>
      <use fill="#ffffff" height="9.2" transform="matrix(0.0098, 0.0, 0.0, 0.0098, 21.6, 9.0)" width="33.7" xlink:href="#font_Gotham_Bold_S0"/>
      <use fill="#ffffff" height="9.2" transform="matrix(0.0098, 0.0, 0.0, 0.0098, 28.0, 9.0)" width="33.7" xlink:href="#font_Gotham_Bold_E0"/>
    </g>
  </g>
  <defs>
    <g id="font_Gotham_Bold_C0">
      <path d="M716.5 -118.0 L716.5 -118.0 616.0 -218.5 Q575.0 -180.0 531.5 -158.0 487.5 -136.0 427.5 -135.5 334.0 -138.0 277.5 -201.5 221.0 -264.5 219.5 -358.0 L219.5 -360.0 Q221.5 -453.5 278.0 -515.5 335.0 -578.0 427.5 -580.5 531.5 -577.5 611.0 -500.5 L711.0 -615.5 Q662.5 -666.0 595.5 -696.5 528.5 -727.0 428.5 -727.5 260.5 -723.5 158.0 -618.0 55.0 -513.0 52.5 -358.0 L52.5 -356.0 Q55.5 -199.5 158.0 -96.0 260.5 7.5 422.5 11.5 524.5 11.0 593.5 -23.0 662.5 -57.5 716.5 -118.0 L716.5 -118.0" fill-rule="evenodd" stroke="none"/>
    </g>
    <g id="font_Gotham_Bold_L0">
      <path d="M601.5 -0.5 L601.5 -0.5 601.5 -143.5 244.0 -143.5 244.0 -716.0 88.0 -716.0 88.0 -0.5 601.5 -0.5 601.5 -0.5" fill-rule="evenodd" stroke="none"/>
    </g>
    <g id="font_Gotham_Bold_O0">
      <path d="M648.5 -356.0 L648.5 -356.0 Q647.0 -262.5 589.0 -200.5 531.0 -138.0 435.0 -135.5 339.0 -138.0 280.0 -201.5 221.5 -264.5 219.5 -358.0 L219.5 -360.0 Q221.0 -453.5 279.0 -515.5 337.0 -578.0 433.0 -580.5 529.0 -578.0 588.0 -514.5 646.5 -451.5 648.5 -358.0 L648.5 -356.0 648.5 -356.0 M815.5 -358.0 L815.5 -358.0 815.5 -360.0 Q812.5 -515.0 707.5 -619.5 603.0 -723.5 435.0 -727.5 267.0 -723.5 161.5 -618.0 55.5 -513.0 52.5 -358.0 L52.5 -356.0 Q55.5 -201.0 160.5 -96.5 265.0 7.5 433.0 11.5 601.0 7.5 706.5 -98.0 812.5 -203.0 815.5 -358.0 L815.5 -358.0" fill-rule="evenodd" stroke="none"/>
    </g>
    <g id="font_Gotham_Bold_S0">
      <path d="M604.0 -211.0 L604.0 -211.0 604.0 -213.0 Q603.5 -305.5 545.0 -354.0 486.5 -402.5 376.5 -429.0 284.5 -451.5 251.0 -470.5 218.0 -489.5 220.0 -523.5 L220.0 -525.5 Q221.0 -583.0 313.5 -588.5 405.5 -586.0 501.0 -517.5 L582.5 -636.5 Q474.0 -726.0 315.5 -727.5 203.0 -726.5 134.5 -668.5 66.0 -610.5 64.0 -511.0 L64.0 -509.0 Q65.5 -405.0 128.5 -359.5 192.0 -313.5 302.0 -289.0 390.5 -267.0 420.5 -247.0 450.0 -226.5 448.0 -197.5 L448.0 -195.5 Q444.5 -130.0 343.5 -127.5 222.0 -131.0 128.0 -215.0 L35.5 -103.0 Q169.5 12.0 340.0 11.5 459.0 11.0 530.5 -46.0 602.0 -103.5 604.0 -211.0 L604.0 -211.0" fill-rule="evenodd" stroke="none"/>
    </g>
    <g id="font_Gotham_Bold_E0">
      <path d="M633.0 0.0 L633.0 0.0 633.0 -140.0 244.0 -140.0 244.0 -292.0 582.0 -292.0 582.0 -432.0 244.0 -432.0 244.0 -576.0 628.0 -576.0 628.0 -716.0 88.0 -716.0 88.0 0.0 633.0 0.0 633.0 0.0" fill-rule="evenodd" stroke="none"/>
    </g>
  </defs>
</svg>
