<?xml version="1.0" encoding="UTF-8" standalone="no"?>
<svg xmlns:xlink="http://www.w3.org/1999/xlink" height="21.3px" width="92.4px" xmlns="http://www.w3.org/2000/svg">
  <g transform="matrix(1.0, 0.0, 0.0, 1.0, -47.7, -4.25)">
    <g transform="matrix(1.0, 0.0, 0.0, 1.0, 46.25, 0.0)">
      <use fill="#ffffff" height="21.3" transform="matrix(0.0254, 0.0, 0.0, 0.0254, 0.0, 24.0)" width="92.4" xlink:href="#font_Gotham_Bold_C0"/>
      <use fill="#ffffff" height="21.3" transform="matrix(0.0254, 0.0, 0.0, 0.0254, 19.2, 24.0)" width="92.4" xlink:href="#font_Gotham_Bold_r0"/>
      <use fill="#ffffff" height="21.3" transform="matrix(0.0254, 0.0, 0.0, 0.0254, 29.65, 24.0)" width="92.4" xlink:href="#font_Gotham_Bold_e0"/>
      <use fill="#ffffff" height="21.3" transform="matrix(0.0254, 0.0, 0.0, 0.0254, 45.55, 24.0)" width="92.4" xlink:href="#font_Gotham_Bold_d0"/>
      <use fill="#ffffff" height="21.3" transform="matrix(0.0254, 0.0, 0.0, 0.0254, 63.1, 24.0)" width="92.4" xlink:href="#font_Gotham_Bold_i0"/>
      <use fill="#ffffff" height="21.3" transform="matrix(0.0254, 0.0, 0.0, 0.0254, 70.95, 24.0)" width="92.4" xlink:href="#font_Gotham_Bold_t0"/>
      <use fill="#ffffff" height="21.3" transform="matrix(0.0254, 0.0, 0.0, 0.0254, 81.75, 24.0)" width="92.4" xlink:href="#font_Gotham_Bold_s0"/>
    </g>
  </g>
  <defs>
    <g id="font_Gotham_Bold_C0">
      <path d="M716.5 -118.0 L716.5 -118.0 616.0 -218.5 Q575.0 -180.0 531.5 -158.0 487.5 -136.0 427.5 -135.5 334.0 -138.0 277.5 -201.5 221.0 -264.5 219.5 -358.0 L219.5 -360.0 Q221.5 -453.5 278.0 -515.5 335.0 -578.0 427.5 -580.5 531.5 -577.5 611.0 -500.5 L711.0 -615.5 Q662.5 -666.0 595.5 -696.5 528.5 -727.0 428.5 -727.5 260.5 -723.5 158.0 -618.0 55.0 -513.0 52.5 -358.0 L52.5 -356.0 Q55.5 -199.5 158.0 -96.0 260.5 7.5 422.5 11.5 524.5 11.0 593.5 -23.0 662.5 -57.5 716.5 -118.0 L716.5 -118.0" fill-rule="evenodd" stroke="none"/>
    </g>
    <g id="font_Gotham_Bold_r0">
      <path d="M399.0 -392.5 L399.0 -392.5 399.0 -558.0 Q266.0 -557.5 224.0 -435.0 L224.0 -547.5 68.0 -547.5 68.0 0.0 224.0 0.0 224.0 -201.0 Q229.5 -394.0 390.5 -392.5 L399.0 -392.5 399.0 -392.5" fill-rule="evenodd" stroke="none"/>
    </g>
    <g id="font_Gotham_Bold_e0">
      <path d="M430.0 -319.5 L430.0 -319.5 195.5 -319.5 Q216.0 -427.0 314.5 -432.5 414.5 -426.5 430.0 -319.5 L430.0 -319.5 M581.5 -260.0 L581.5 -260.0 581.5 -262.0 Q582.0 -381.5 516.5 -468.5 451.5 -555.5 314.5 -559.5 192.5 -556.0 119.0 -475.0 45.0 -393.5 43.0 -274.5 L43.0 -272.5 Q45.5 -145.5 124.5 -68.0 203.5 9.5 329.5 11.5 478.0 8.0 554.0 -92.5 L465.0 -170.5 Q405.0 -114.0 332.0 -115.5 224.0 -116.5 197.5 -220.5 L579.5 -220.5 Q581.5 -239.5 581.5 -260.0 L581.5 -260.0" fill-rule="evenodd" stroke="none"/>
    </g>
    <g id="font_Gotham_Bold_d0">
      <path d="M466.0 -274.0 L466.0 -274.0 Q464.5 -203.5 427.0 -162.0 389.5 -121.0 333.5 -120.0 277.5 -121.0 239.5 -162.0 201.5 -203.0 200.0 -273.0 L200.0 -275.0 Q201.5 -345.5 239.5 -386.5 277.5 -427.0 333.5 -428.0 389.5 -427.0 427.0 -386.0 464.5 -345.0 466.0 -275.0 L466.0 -274.0 466.0 -274.0 M620.0 0.0 L620.0 0.0 620.0 -748.0 464.0 -748.0 464.0 -478.0 Q413.5 -552.0 293.5 -560.0 193.0 -559.5 120.5 -487.0 47.5 -414.5 44.0 -276.0 L44.0 -274.0 Q48.0 -134.5 121.0 -61.5 194.5 11.5 293.5 12.0 411.0 6.0 464.0 -77.0 L464.0 0.0 620.0 0.0 620.0 0.0" fill-rule="evenodd" stroke="none"/>
    </g>
    <g id="font_Gotham_Bold_i0">
      <path d="M232.0 0.0 L232.0 0.0 232.0 -548.0 76.0 -548.0 76.0 0.0 232.0 0.0 232.0 0.0 M236.0 -608.0 L236.0 -608.0 236.0 -748.0 72.0 -748.0 72.0 -608.0 236.0 -608.0 236.0 -608.0" fill-rule="evenodd" stroke="none"/>
    </g>
    <g id="font_Gotham_Bold_t0">
      <path d="M379.0 -24.5 L379.0 -24.5 379.0 -151.0 Q345.0 -132.0 302.0 -131.5 251.0 -131.5 252.0 -184.5 L252.0 -416.0 381.0 -416.0 381.0 -548.0 252.0 -548.0 252.0 -688.0 96.0 -688.0 96.0 -548.0 30.5 -548.0 30.5 -416.0 96.0 -416.0 96.0 -159.0 Q97.0 -64.5 140.5 -27.5 183.5 9.0 256.0 7.5 332.0 6.5 379.0 -24.5 L379.0 -24.5" fill-rule="evenodd" stroke="none"/>
    </g>
    <g id="font_Gotham_Bold_s0">
      <path d="M472.0 -165.5 L472.0 -165.5 472.0 -167.5 Q469.0 -241.0 418.0 -277.0 367.0 -313.0 306.5 -330.5 261.0 -345.0 229.0 -359.5 197.5 -373.5 196.0 -396.0 L196.0 -398.0 Q196.5 -433.5 253.0 -436.0 315.5 -434.5 400.5 -385.0 L459.5 -492.5 Q365.0 -554.0 256.0 -556.0 171.0 -555.5 114.5 -510.5 58.0 -466.0 56.0 -381.5 L56.0 -379.5 Q59.0 -301.5 109.0 -265.5 159.0 -229.5 219.5 -214.5 265.5 -201.5 298.0 -188.5 330.5 -175.5 332.0 -151.0 L332.0 -149.0 Q333.0 -110.0 267.0 -108.0 187.5 -108.5 95.0 -173.5 L28.5 -71.0 Q143.0 13.5 263.0 12.0 353.5 12.5 412.0 -31.0 470.0 -74.0 472.0 -165.5 L472.0 -165.5" fill-rule="evenodd" stroke="none"/>
    </g>
  </defs>
</svg>
