<?xml version="1.0" encoding="UTF-8" standalone="no"?>
<svg xmlns:xlink="http://www.w3.org/1999/xlink" height="29.35px" width="130.05px" xmlns="http://www.w3.org/2000/svg">
  <g transform="matrix(1.0, 0.0, 0.0, 1.0, -6.95, -1.45)">
    <g transform="matrix(1.0, 0.0, 0.0, 1.0, 6.35, 0.0)">
      <use fill="#a8a6a6" height="29.35" transform="matrix(0.0117, 0.0, 0.0, 0.0117, 0.0, 11.0)" width="130.05" xlink:href="#font_Gotham_Bold_d0"/>
      <use fill="#a8a6a6" height="29.35" transform="matrix(0.0117, 0.0, 0.0, 0.0117, 8.1, 11.0)" width="130.05" xlink:href="#font_Gotham_Bold_o0"/>
      <use fill="#a8a6a6" height="29.35" transform="matrix(0.0117, 0.0, 0.0, 0.0117, 15.75, 11.0)" width="130.05" xlink:href="#font_Gotham_Bold_w0"/>
      <use fill="#a8a6a6" height="29.35" transform="matrix(0.0117, 0.0, 0.0, 0.0117, 26.1, 11.0)" width="130.05" xlink:href="#font_Gotham_Bold_n0"/>
      <use fill="#a8a6a6" height="29.35" transform="matrix(0.0117, 0.0, 0.0, 0.0117, 33.55, 11.0)" width="130.05" xlink:href="#font_Gotham_Bold_l0"/>
      <use fill="#a8a6a6" height="29.35" transform="matrix(0.0117, 0.0, 0.0, 0.0117, 37.15, 11.0)" width="130.05" xlink:href="#font_Gotham_Bold_o0"/>
      <use fill="#a8a6a6" height="29.35" transform="matrix(0.0117, 0.0, 0.0, 0.0117, 45.15, 11.0)" width="130.05" xlink:href="#font_Gotham_Bold_a0"/>
      <use fill="#a8a6a6" height="29.35" transform="matrix(0.0117, 0.0, 0.0, 0.0117, 52.25, 11.0)" width="130.05" xlink:href="#font_Gotham_Bold_d0"/>
      <use fill="#a8a6a6" height="29.35" transform="matrix(0.0117, 0.0, 0.0, 0.0117, 63.95, 11.0)" width="130.05" xlink:href="#font_Gotham_Bold_s0"/>
      <use fill="#a8a6a6" height="29.35" transform="matrix(0.0117, 0.0, 0.0, 0.0117, 69.95, 11.0)" width="130.05" xlink:href="#font_Gotham_Bold_c0"/>
      <use fill="#a8a6a6" height="29.35" transform="matrix(0.0117, 0.0, 0.0, 0.0117, 76.85, 11.0)" width="130.05" xlink:href="#font_Gotham_Bold_r0"/>
      <use fill="#a8a6a6" height="29.35" transform="matrix(0.0117, 0.0, 0.0, 0.0117, 81.7, 11.0)" width="130.05" xlink:href="#font_Gotham_Bold_e0"/>
      <use fill="#a8a6a6" height="29.35" transform="matrix(0.0117, 0.0, 0.0, 0.0117, 89.05, 11.0)" width="130.05" xlink:href="#font_Gotham_Bold_e0"/>
      <use fill="#a8a6a6" height="29.35" transform="matrix(0.0117, 0.0, 0.0, 0.0117, 96.4, 11.0)" width="130.05" xlink:href="#font_Gotham_Bold_n0"/>
      <use fill="#a8a6a6" height="29.35" transform="matrix(0.0117, 0.0, 0.0, 0.0117, 107.5, 11.0)" width="130.05" xlink:href="#font_Gotham_Bold_s0"/>
      <use fill="#a8a6a6" height="29.35" transform="matrix(0.0117, 0.0, 0.0, 0.0117, 113.5, 11.0)" width="130.05" xlink:href="#font_Gotham_Bold_i0"/>
      <use fill="#a8a6a6" height="29.35" transform="matrix(0.0117, 0.0, 0.0, 0.0117, 117.15, 11.0)" width="130.05" xlink:href="#font_Gotham_Bold_z0"/>
      <use fill="#a8a6a6" height="29.35" transform="matrix(0.0117, 0.0, 0.0, 0.0117, 123.75, 11.0)" width="130.05" xlink:href="#font_Gotham_Bold_e0"/>
    </g>
    <g transform="matrix(1.0, 0.0, 0.0, 1.0, 6.35, 0.0)">
      <use fill="#ffffff" height="29.35" transform="matrix(0.0137, 0.0, 0.0, 0.0137, 32.0, 30.0)" width="130.05" xlink:href="#font_Gotham_Bold_80"/>
      <use fill="#ffffff" height="29.35" transform="matrix(0.0137, 0.0, 0.0, 0.0137, 40.8, 30.0)" width="130.05" xlink:href="#font_Gotham_Bold_00"/>
      <use fill="#ffffff" height="29.35" transform="matrix(0.0137, 0.0, 0.0, 0.0137, 51.05, 30.0)" width="130.05" xlink:href="#font_Gotham_Bold_00"/>
      <use fill="#ffffff" height="29.35" transform="matrix(0.0137, 0.0, 0.0, 0.0137, 61.3, 30.0)" width="130.05" xlink:href="#font_Gotham_Bold_x0"/>
      <use fill="#ffffff" height="29.35" transform="matrix(0.0137, 0.0, 0.0, 0.0137, 69.5, 30.0)" width="130.05" xlink:href="#font_Gotham_Bold_60"/>
      <use fill="#ffffff" height="29.35" transform="matrix(0.0137, 0.0, 0.0, 0.0137, 78.75, 30.0)" width="130.05" xlink:href="#font_Gotham_Bold_00"/>
      <use fill="#ffffff" height="29.35" transform="matrix(0.0137, 0.0, 0.0, 0.0137, 89.0, 30.0)" width="130.05" xlink:href="#font_Gotham_Bold_00"/>
    </g>
  </g>
  <defs>
    <g id="font_Gotham_Bold_d0">
      <path d="M466.0 -274.0 L466.0 -274.0 Q464.5 -203.5 427.0 -162.0 389.5 -121.0 333.5 -120.0 277.5 -121.0 239.5 -162.0 201.5 -203.0 200.0 -273.0 L200.0 -275.0 Q201.5 -345.5 239.5 -386.5 277.5 -427.0 333.5 -428.0 389.5 -427.0 427.0 -386.0 464.5 -345.0 466.0 -275.0 L466.0 -274.0 466.0 -274.0 M620.0 0.0 L620.0 0.0 620.0 -748.0 464.0 -748.0 464.0 -478.0 Q413.5 -552.0 293.5 -560.0 193.0 -559.5 120.5 -487.0 47.5 -414.5 44.0 -276.0 L44.0 -274.0 Q48.0 -134.5 121.0 -61.5 194.5 11.5 293.5 12.0 411.0 6.0 464.0 -77.0 L464.0 0.0 620.0 0.0 620.0 0.0" fill-rule="evenodd" stroke="none"/>
    </g>
    <g id="font_Gotham_Bold_o0">
      <path d="M484.5 -272.0 L484.5 -272.0 Q484.0 -210.0 446.5 -168.0 409.0 -125.5 341.0 -124.0 275.0 -126.0 236.0 -169.0 196.5 -212.0 195.5 -274.0 L195.5 -276.0 Q196.0 -338.0 233.5 -380.0 271.0 -422.5 339.0 -424.0 405.0 -422.0 444.0 -379.0 483.5 -336.0 484.5 -274.0 L484.5 -272.0 484.5 -272.0 M639.5 -274.0 L639.5 -274.0 639.5 -276.0 Q637.0 -396.5 554.5 -476.5 472.0 -557.0 341.0 -560.0 209.0 -556.5 126.0 -475.5 43.0 -394.5 40.5 -274.0 L40.5 -272.0 Q43.0 -151.5 125.5 -71.5 208.0 9.0 339.0 12.0 471.0 8.5 554.0 -72.5 637.0 -153.5 639.5 -274.0 L639.5 -274.0" fill-rule="evenodd" stroke="none"/>
    </g>
    <g id="font_Gotham_Bold_w0">
      <path d="M857.0 -548.0 L857.0 -548.0 702.5 -548.0 612.5 -215.0 508.0 -552.0 374.0 -552.0 270.5 -216.5 182.5 -548.0 24.5 -548.0 193.5 4.0 333.0 4.0 440.5 -332.5 546.0 4.0 686.0 4.0 857.0 -548.0 857.0 -548.0" fill-rule="evenodd" stroke="none"/>
    </g>
    <g id="font_Gotham_Bold_n0">
      <path d="M572.0 0.0 L572.0 0.0 572.0 -354.0 Q567.0 -552.0 385.5 -560.0 326.5 -559.0 288.5 -532.5 250.0 -506.5 224.0 -470.5 L224.0 -548.0 68.0 -548.0 68.0 0.0 224.0 0.0 224.0 -305.5 Q228.0 -415.5 321.5 -416.0 413.5 -415.5 416.0 -305.0 L416.0 0.0 572.0 0.0 572.0 0.0" fill-rule="evenodd" stroke="none"/>
    </g>
    <g id="font_Gotham_Bold_l0">
      <path d="M232.0 0.0 L232.0 0.0 232.0 -748.0 76.0 -748.0 76.0 0.0 232.0 0.0 232.0 0.0" fill-rule="evenodd" stroke="none"/>
    </g>
    <g id="font_Gotham_Bold_a0">
      <path d="M394.5 -192.5 L394.5 -192.5 Q388.0 -101.5 273.0 -96.0 193.0 -97.5 188.0 -162.5 L188.0 -164.5 Q192.0 -239.5 295.5 -240.5 353.5 -239.5 394.5 -220.0 L394.5 -192.5 394.5 -192.5 M543.5 0.0 L543.5 0.0 543.5 -319.0 Q548.5 -550.0 297.5 -556.0 228.5 -555.5 178.5 -544.0 128.0 -532.5 83.5 -512.5 L123.0 -394.0 Q192.5 -423.0 275.0 -424.0 392.0 -422.0 392.5 -322.0 L392.5 -312.5 Q337.5 -334.5 258.5 -335.5 159.0 -336.0 98.5 -292.5 37.5 -249.0 36.0 -159.0 L36.0 -157.0 Q38.0 -74.5 92.0 -31.5 145.5 11.5 226.0 12.0 337.0 8.5 391.5 -58.0 L391.5 0.0 543.5 0.0 543.5 0.0" fill-rule="evenodd" stroke="none"/>
    </g>
    <g id="font_Gotham_Bold_s0">
      <path d="M472.0 -165.5 L472.0 -165.5 472.0 -167.5 Q469.0 -241.0 418.0 -277.0 367.0 -313.0 306.5 -330.5 261.0 -345.0 229.0 -359.5 197.5 -373.5 196.0 -396.0 L196.0 -398.0 Q196.5 -433.5 253.0 -436.0 315.5 -434.5 400.5 -385.0 L459.5 -492.5 Q365.0 -554.0 256.0 -556.0 171.0 -555.5 114.5 -510.5 58.0 -466.0 56.0 -381.5 L56.0 -379.5 Q59.0 -301.5 109.0 -265.5 159.0 -229.5 219.5 -214.5 265.5 -201.5 298.0 -188.5 330.5 -175.5 332.0 -151.0 L332.0 -149.0 Q333.0 -110.0 267.0 -108.0 187.5 -108.5 95.0 -173.5 L28.5 -71.0 Q143.0 13.5 263.0 12.0 353.5 12.5 412.0 -31.0 470.0 -74.0 472.0 -165.5 L472.0 -165.5" fill-rule="evenodd" stroke="none"/>
    </g>
    <g id="font_Gotham_Bold_c0">
      <path d="M552.0 -89.5 L552.0 -89.5 461.0 -181.5 Q408.5 -126.0 335.0 -124.0 270.5 -125.5 233.5 -168.0 196.5 -210.0 195.5 -274.0 L195.5 -276.0 Q196.5 -338.0 233.0 -380.0 269.5 -422.5 328.5 -424.0 406.5 -421.5 453.5 -364.5 L549.0 -466.5 Q478.5 -557.0 330.0 -560.0 201.0 -556.5 122.0 -475.0 42.5 -394.0 40.5 -274.0 L40.5 -272.0 Q43.0 -152.5 122.0 -72.0 201.5 8.5 327.5 12.0 408.5 11.0 461.0 -16.5 513.5 -44.5 552.0 -89.5 L552.0 -89.5" fill-rule="evenodd" stroke="none"/>
    </g>
    <g id="font_Gotham_Bold_r0">
      <path d="M399.0 -392.5 L399.0 -392.5 399.0 -558.0 Q266.0 -557.5 224.0 -435.0 L224.0 -547.5 68.0 -547.5 68.0 0.0 224.0 0.0 224.0 -201.0 Q229.5 -394.0 390.5 -392.5 L399.0 -392.5 399.0 -392.5" fill-rule="evenodd" stroke="none"/>
    </g>
    <g id="font_Gotham_Bold_e0">
      <path d="M430.0 -319.5 L430.0 -319.5 195.5 -319.5 Q216.0 -427.0 314.5 -432.5 414.5 -426.5 430.0 -319.5 L430.0 -319.5 M581.5 -260.0 L581.5 -260.0 581.5 -262.0 Q582.0 -381.5 516.5 -468.5 451.5 -555.5 314.5 -559.5 192.5 -556.0 119.0 -475.0 45.0 -393.5 43.0 -274.5 L43.0 -272.5 Q45.5 -145.5 124.5 -68.0 203.5 9.5 329.5 11.5 478.0 8.0 554.0 -92.5 L465.0 -170.5 Q405.0 -114.0 332.0 -115.5 224.0 -116.5 197.5 -220.5 L579.5 -220.5 Q581.5 -239.5 581.5 -260.0 L581.5 -260.0" fill-rule="evenodd" stroke="none"/>
    </g>
    <g id="font_Gotham_Bold_i0">
      <path d="M232.0 0.0 L232.0 0.0 232.0 -548.0 76.0 -548.0 76.0 0.0 232.0 0.0 232.0 0.0 M236.0 -608.0 L236.0 -608.0 236.0 -748.0 72.0 -748.0 72.0 -608.0 236.0 -608.0 236.0 -608.0" fill-rule="evenodd" stroke="none"/>
    </g>
    <g id="font_Gotham_Bold_z0">
      <path d="M528.5 0.0 L528.5 0.0 528.5 -128.0 243.5 -128.0 528.5 -437.0 528.5 -548.0 60.5 -548.0 60.5 -420.0 335.0 -420.0 51.0 -111.0 51.0 0.0 528.5 0.0 528.5 0.0" fill-rule="evenodd" stroke="none"/>
    </g>
    <g id="font_Gotham_Bold_80">
      <path d="M444.5 -208.5 L444.5 -208.5 Q441.0 -126.5 322.0 -120.0 203.0 -126.5 199.5 -208.5 200.5 -250.5 234.5 -273.5 268.0 -296.0 322.0 -296.5 376.0 -296.0 409.5 -273.5 443.5 -250.5 444.5 -208.5 L444.5 -208.5 M424.5 -511.5 L424.5 -511.5 Q420.0 -429.0 322.0 -423.5 224.0 -429.5 219.5 -512.5 220.0 -547.0 246.5 -571.0 273.5 -595.0 322.0 -596.0 370.5 -595.0 397.5 -570.5 424.0 -546.0 424.5 -511.5 L424.5 -511.5 M599.5 -200.5 L599.5 -200.5 Q596.0 -320.0 482.0 -370.5 572.0 -417.0 575.5 -528.5 574.0 -614.0 506.0 -670.0 437.5 -726.0 322.0 -728.0 206.5 -726.0 138.0 -670.0 70.0 -614.0 68.5 -528.5 72.5 -417.0 160.5 -370.5 46.0 -322.0 44.5 -196.5 47.0 -101.0 124.0 -45.5 201.0 10.5 322.0 12.0 443.0 11.0 520.0 -44.0 597.0 -99.5 599.5 -200.5 L599.5 -200.5" fill-rule="evenodd" stroke="none"/>
    </g>
    <g id="font_Gotham_Bold_00">
      <path d="M528.5 -357.0 L528.5 -357.0 Q527.5 -258.0 487.0 -196.0 446.0 -134.0 375.0 -132.0 304.0 -134.0 262.0 -196.5 220.5 -259.0 219.5 -359.0 220.5 -459.0 261.0 -520.5 302.0 -582.0 373.0 -584.0 444.0 -582.0 486.0 -519.0 527.5 -456.5 528.5 -357.0 L528.5 -357.0 M691.5 -359.0 L691.5 -359.0 Q689.5 -518.0 604.5 -621.0 519.0 -724.5 375.0 -728.0 231.0 -724.0 144.5 -620.0 58.5 -516.0 56.5 -357.0 58.5 -198.0 143.5 -95.0 229.0 8.5 373.0 12.0 517.0 8.0 603.5 -96.0 689.5 -200.0 691.5 -359.0 L691.5 -359.0" fill-rule="evenodd" stroke="none"/>
    </g>
    <g id="font_Gotham_Bold_x0">
      <path d="M574.5 0.0 L574.5 0.0 381.0 -281.0 566.5 -548.0 403.5 -548.0 300.0 -388.5 197.5 -548.0 30.5 -548.0 216.0 -278.0 23.5 0.0 186.5 0.0 297.0 -170.5 407.5 0.0 574.5 0.0 574.5 0.0" fill-rule="evenodd" stroke="none"/>
    </g>
    <g id="font_Gotham_Bold_60">
      <path d="M464.0 -230.5 L464.0 -230.5 Q461.0 -130.5 341.0 -124.0 219.5 -131.0 215.5 -231.5 218.5 -330.0 339.0 -336.0 460.0 -329.5 464.0 -230.5 L464.0 -230.5 M593.5 -649.0 L593.5 -649.0 Q547.0 -686.5 494.5 -707.0 441.5 -727.5 369.5 -727.5 208.5 -724.0 130.0 -615.5 52.0 -507.0 52.5 -338.0 53.0 -232.0 75.5 -167.5 98.5 -103.5 138.5 -65.5 211.0 11.0 347.0 12.0 466.5 10.0 542.0 -57.5 617.5 -125.0 620.0 -237.5 617.5 -351.0 547.5 -409.5 477.5 -468.0 368.5 -468.0 268.0 -462.5 219.5 -421.5 227.0 -493.0 262.5 -538.0 298.0 -583.0 364.5 -584.5 409.5 -584.0 443.0 -569.5 476.5 -555.0 511.0 -528.5 L593.5 -649.0 593.5 -649.0" fill-rule="evenodd" stroke="none"/>
    </g>
  </defs>
</svg>
