<?xml version="1.0" encoding="UTF-8" standalone="no"?>
<svg xmlns:xlink="http://www.w3.org/1999/xlink" height="20.75px" width="180.8px" xmlns="http://www.w3.org/2000/svg">
  <g transform="matrix(1.0, 0.0, 0.0, 1.0, -3.8, -4.8)">
    <g transform="matrix(1.0, 0.0, 0.0, 1.0, 0.0, 0.0)">
      <use fill="#ffffff" height="20.75" transform="matrix(0.0254, 0.0, 0.0, 0.0254, 2.0, 24.0)" width="180.8" xlink:href="#font_Gotham_Bold_D0"/>
      <use fill="#ffffff" height="20.75" transform="matrix(0.0254, 0.0, 0.0, 0.0254, 22.35, 24.0)" width="180.8" xlink:href="#font_Gotham_Bold_O0"/>
      <use fill="#ffffff" height="20.75" transform="matrix(0.0254, 0.0, 0.0, 0.0254, 43.4, 24.0)" width="180.8" xlink:href="#font_Gotham_Bold_W0"/>
      <use fill="#ffffff" height="20.75" transform="matrix(0.0254, 0.0, 0.0, 0.0254, 72.6, 24.0)" width="180.8" xlink:href="#font_Gotham_Bold_N0"/>
      <use fill="#ffffff" height="20.75" transform="matrix(0.0254, 0.0, 0.0, 0.0254, 93.15, 24.0)" width="180.8" xlink:href="#font_Gotham_Bold_L0"/>
      <use fill="#ffffff" height="20.75" transform="matrix(0.0254, 0.0, 0.0, 0.0254, 108.2, 24.0)" width="180.8" xlink:href="#font_Gotham_Bold_O0"/>
      <use fill="#ffffff" height="20.75" transform="matrix(0.0254, 0.0, 0.0, 0.0254, 129.15, 24.0)" width="180.8" xlink:href="#font_Gotham_Bold_A0"/>
      <use fill="#ffffff" height="20.75" transform="matrix(0.0254, 0.0, 0.0, 0.0254, 149.65, 24.0)" width="180.8" xlink:href="#font_Gotham_Bold_D0"/>
      <use fill="#ffffff" height="20.75" transform="matrix(0.0254, 0.0, 0.0, 0.0254, 169.7, 24.0)" width="180.8" xlink:href="#font_Gotham_Bold_S0"/>
    </g>
  </g>
  <defs>
    <g id="font_Gotham_Bold_D0">
      <path d="M580.5 -356.0 L580.5 -356.0 Q579.0 -260.0 521.0 -203.0 463.0 -145.5 365.5 -144.0 L244.0 -144.0 244.0 -572.0 365.5 -572.0 Q463.0 -570.5 521.0 -512.0 579.0 -454.0 580.5 -358.0 L580.5 -356.0 580.5 -356.0 M747.5 -358.0 L747.5 -358.0 747.5 -360.0 Q745.0 -513.5 640.5 -613.0 536.5 -712.5 365.5 -716.0 L88.0 -716.0 88.0 0.0 365.5 0.0 Q536.5 -3.5 640.5 -104.0 745.0 -204.5 747.5 -358.0 L747.5 -358.0" fill-rule="evenodd" stroke="none"/>
    </g>
    <g id="font_Gotham_Bold_O0">
      <path d="M648.5 -356.0 L648.5 -356.0 Q647.0 -262.5 589.0 -200.5 531.0 -138.0 435.0 -135.5 339.0 -138.0 280.0 -201.5 221.5 -264.5 219.5 -358.0 L219.5 -360.0 Q221.0 -453.5 279.0 -515.5 337.0 -578.0 433.0 -580.5 529.0 -578.0 588.0 -514.5 646.5 -451.5 648.5 -358.0 L648.5 -356.0 648.5 -356.0 M815.5 -358.0 L815.5 -358.0 815.5 -360.0 Q812.5 -515.0 707.5 -619.5 603.0 -723.5 435.0 -727.5 267.0 -723.5 161.5 -618.0 55.5 -513.0 52.5 -358.0 L52.5 -356.0 Q55.5 -201.0 160.5 -96.5 265.0 7.5 433.0 11.5 601.0 7.5 706.5 -98.0 812.5 -203.0 815.5 -358.0 L815.5 -358.0" fill-rule="evenodd" stroke="none"/>
    </g>
    <g id="font_Gotham_Bold_W0">
      <path d="M1118.0 -716.0 L1118.0 -716.0 953.5 -716.0 805.0 -232.0 644.0 -720.0 509.0 -720.0 348.0 -232.5 199.5 -716.0 30.5 -716.0 275.5 4.0 412.5 4.0 574.5 -463.5 736.0 4.0 873.5 4.0 1118.0 -716.0 1118.0 -716.0" fill-rule="evenodd" stroke="none"/>
    </g>
    <g id="font_Gotham_Bold_N0">
      <path d="M724.0 0.0 L724.0 0.0 724.0 -716.0 568.0 -716.0 568.0 -275.0 229.5 -716.0 84.0 -716.0 84.0 0.0 240.0 0.0 240.0 -455.0 589.5 0.0 724.0 0.0 724.0 0.0" fill-rule="evenodd" stroke="none"/>
    </g>
    <g id="font_Gotham_Bold_L0">
      <path d="M601.5 -0.5 L601.5 -0.5 601.5 -143.5 244.0 -143.5 244.0 -716.0 88.0 -716.0 88.0 -0.5 601.5 -0.5 601.5 -0.5" fill-rule="evenodd" stroke="none"/>
    </g>
    <g id="font_Gotham_Bold_A0">
      <path d="M497.5 -299.5 L497.5 -299.5 307.0 -299.5 402.5 -531.0 497.5 -299.5 497.5 -299.5 M784.5 0.0 L784.5 0.0 477.0 -720.0 332.0 -720.0 24.5 0.0 185.5 0.0 251.0 -160.5 554.0 -160.5 619.5 0.0 784.5 0.0 784.5 0.0" fill-rule="evenodd" stroke="none"/>
    </g>
    <g id="font_Gotham_Bold_S0">
      <path d="M604.0 -211.0 L604.0 -211.0 604.0 -213.0 Q603.5 -305.5 545.0 -354.0 486.5 -402.5 376.5 -429.0 284.5 -451.5 251.0 -470.5 218.0 -489.5 220.0 -523.5 L220.0 -525.5 Q221.0 -583.0 313.5 -588.5 405.5 -586.0 501.0 -517.5 L582.5 -636.5 Q474.0 -726.0 315.5 -727.5 203.0 -726.5 134.5 -668.5 66.0 -610.5 64.0 -511.0 L64.0 -509.0 Q65.5 -405.0 128.5 -359.5 192.0 -313.5 302.0 -289.0 390.5 -267.0 420.5 -247.0 450.0 -226.5 448.0 -197.5 L448.0 -195.5 Q444.5 -130.0 343.5 -127.5 222.0 -131.0 128.0 -215.0 L35.5 -103.0 Q169.5 12.0 340.0 11.5 459.0 11.0 530.5 -46.0 602.0 -103.5 604.0 -211.0 L604.0 -211.0" fill-rule="evenodd" stroke="none"/>
    </g>
  </defs>
</svg>
