<?xml version="1.0" encoding="UTF-8" standalone="no"?>
<svg xmlns:xlink="http://www.w3.org/1999/xlink" height="20.3px" width="115.5px" xmlns="http://www.w3.org/2000/svg">
  <g transform="matrix(1.0, 0.0, 0.0, 1.0, -6.2, -4.95)">
    <g transform="matrix(1.0, 0.0, 0.0, 1.0, 0.0, 0.0)">
      <use fill="#ffffff" height="20.3" transform="matrix(0.0254, 0.0, 0.0, 0.0254, 5.0, 24.0)" width="115.5" xlink:href="#font_Gotham_Bold_T0"/>
      <use fill="#ffffff" height="20.3" transform="matrix(0.0254, 0.0, 0.0, 0.0254, 21.85, 24.0)" width="115.5" xlink:href="#font_Gotham_Bold_R0"/>
      <use fill="#ffffff" height="20.3" transform="matrix(0.0254, 0.0, 0.0, 0.0254, 40.65, 24.0)" width="115.5" xlink:href="#font_Gotham_Bold_A0"/>
      <use fill="#ffffff" height="20.3" transform="matrix(0.0254, 0.0, 0.0, 0.0254, 61.2, 24.0)" width="115.5" xlink:href="#font_Gotham_Bold_I0"/>
      <use fill="#ffffff" height="20.3" transform="matrix(0.0254, 0.0, 0.0, 0.0254, 69.95, 24.0)" width="115.5" xlink:href="#font_Gotham_Bold_L0"/>
      <use fill="#ffffff" height="20.3" transform="matrix(0.0254, 0.0, 0.0, 0.0254, 86.05, 24.0)" width="115.5" xlink:href="#font_Gotham_Bold_E0"/>
      <use fill="#ffffff" height="20.3" transform="matrix(0.0254, 0.0, 0.0, 0.0254, 103.45, 24.0)" width="115.5" xlink:href="#font_Gotham_Bold_R0"/>
    </g>
  </g>
  <defs>
    <g id="font_Gotham_Bold_T0">
      <path d="M626.0 -568.5 L626.0 -568.5 626.0 -715.5 34.0 -715.5 34.0 -568.5 252.0 -568.5 252.0 0.0 408.0 0.0 408.0 -568.5 626.0 -568.5 626.0 -568.5" fill-rule="evenodd" stroke="none"/>
    </g>
    <g id="font_Gotham_Bold_R0">
      <path d="M524.0 -468.5 L524.0 -468.5 Q521.5 -373.0 403.5 -367.5 L244.0 -367.5 244.0 -572.0 400.5 -572.0 Q520.0 -571.5 524.0 -470.5 L524.0 -468.5 524.0 -468.5 M705.5 0.0 L705.5 0.0 530.5 -255.0 Q599.5 -280.0 641.0 -335.5 683.0 -390.5 684.0 -476.5 L684.0 -478.5 Q683.0 -590.0 612.0 -652.5 541.5 -715.0 413.5 -716.0 L88.0 -716.0 88.0 0.0 244.0 0.0 244.0 -228.5 367.5 -228.5 521.0 0.0 705.5 0.0 705.5 0.0" fill-rule="evenodd" stroke="none"/>
    </g>
    <g id="font_Gotham_Bold_A0">
      <path d="M497.5 -299.5 L497.5 -299.5 307.0 -299.5 402.5 -531.0 497.5 -299.5 497.5 -299.5 M784.5 0.0 L784.5 0.0 477.0 -720.0 332.0 -720.0 24.5 0.0 185.5 0.0 251.0 -160.5 554.0 -160.5 619.5 0.0 784.5 0.0 784.5 0.0" fill-rule="evenodd" stroke="none"/>
    </g>
    <g id="font_Gotham_Bold_I0">
      <path d="M252.0 0.0 L252.0 0.0 252.0 -716.0 96.0 -716.0 96.0 0.0 252.0 0.0 252.0 0.0" fill-rule="evenodd" stroke="none"/>
    </g>
    <g id="font_Gotham_Bold_L0">
      <path d="M601.5 -0.5 L601.5 -0.5 601.5 -143.5 244.0 -143.5 244.0 -716.0 88.0 -716.0 88.0 -0.5 601.5 -0.5 601.5 -0.5" fill-rule="evenodd" stroke="none"/>
    </g>
    <g id="font_Gotham_Bold_E0">
      <path d="M633.0 0.0 L633.0 0.0 633.0 -140.0 244.0 -140.0 244.0 -292.0 582.0 -292.0 582.0 -432.0 244.0 -432.0 244.0 -576.0 628.0 -576.0 628.0 -716.0 88.0 -716.0 88.0 0.0 633.0 0.0 633.0 0.0" fill-rule="evenodd" stroke="none"/>
    </g>
  </defs>
</svg>
