<?xml version="1.0" encoding="UTF-8" standalone="no"?>
<svg xmlns:xlink="http://www.w3.org/1999/xlink" height="24.6px" width="104.85px" xmlns="http://www.w3.org/2000/svg">
  <g transform="matrix(1.0, 0.0, 0.0, 1.0, -41.2, -4.8)">
    <g transform="matrix(1.0, 0.0, 0.0, 1.0, 0.0, 0.0)">
      <use fill="#ffffff" height="24.6" transform="matrix(0.0254, 0.0, 0.0, 0.0254, 40.0, 24.0)" width="104.85" xlink:href="#font_Gotham_Bold_S0"/>
      <use fill="#ffffff" height="24.6" transform="matrix(0.0254, 0.0, 0.0, 0.0254, 56.65, 24.0)" width="104.85" xlink:href="#font_Gotham_Bold_u0"/>
      <use fill="#ffffff" height="24.6" transform="matrix(0.0254, 0.0, 0.0, 0.0254, 72.85, 24.0)" width="104.85" xlink:href="#font_Gotham_Bold_p0"/>
      <use fill="#ffffff" height="24.6" transform="matrix(0.0254, 0.0, 0.0, 0.0254, 90.4, 24.0)" width="104.85" xlink:href="#font_Gotham_Bold_p0"/>
      <use fill="#ffffff" height="24.6" transform="matrix(0.0254, 0.0, 0.0, 0.0254, 107.95, 24.0)" width="104.85" xlink:href="#font_Gotham_Bold_o0"/>
      <use fill="#ffffff" height="24.6" transform="matrix(0.0254, 0.0, 0.0, 0.0254, 125.2, 24.0)" width="104.85" xlink:href="#font_Gotham_Bold_r0"/>
      <use fill="#ffffff" height="24.6" transform="matrix(0.0254, 0.0, 0.0, 0.0254, 136.1, 24.0)" width="104.85" xlink:href="#font_Gotham_Bold_t0"/>
    </g>
  </g>
  <defs>
    <g id="font_Gotham_Bold_S0">
      <path d="M604.0 -211.0 L604.0 -211.0 604.0 -213.0 Q603.5 -305.5 545.0 -354.0 486.5 -402.5 376.5 -429.0 284.5 -451.5 251.0 -470.5 218.0 -489.5 220.0 -523.5 L220.0 -525.5 Q221.0 -583.0 313.5 -588.5 405.5 -586.0 501.0 -517.5 L582.5 -636.5 Q474.0 -726.0 315.5 -727.5 203.0 -726.5 134.5 -668.5 66.0 -610.5 64.0 -511.0 L64.0 -509.0 Q65.5 -405.0 128.5 -359.5 192.0 -313.5 302.0 -289.0 390.5 -267.0 420.5 -247.0 450.0 -226.5 448.0 -197.5 L448.0 -195.5 Q444.5 -130.0 343.5 -127.5 222.0 -131.0 128.0 -215.0 L35.5 -103.0 Q169.5 12.0 340.0 11.5 459.0 11.0 530.5 -46.0 602.0 -103.5 604.0 -211.0 L604.0 -211.0" fill-rule="evenodd" stroke="none"/>
    </g>
    <g id="font_Gotham_Bold_u0">
      <path d="M568.0 0.0 L568.0 0.0 568.0 -548.0 412.0 -548.0 412.0 -242.5 Q408.0 -132.5 314.5 -132.0 222.5 -132.5 220.0 -243.0 L220.0 -548.0 64.0 -548.0 64.0 -194.0 Q69.0 4.0 250.5 12.0 309.5 11.0 347.5 -15.5 386.0 -41.5 412.0 -77.5 L412.0 0.0 568.0 0.0 568.0 0.0" fill-rule="evenodd" stroke="none"/>
    </g>
    <g id="font_Gotham_Bold_p0">
      <path d="M492.0 -272.0 L492.0 -272.0 Q490.5 -202.0 452.0 -161.5 413.0 -121.0 356.5 -120.0 300.0 -121.0 261.5 -161.5 223.5 -202.5 222.0 -272.0 L222.0 -274.0 Q223.5 -344.5 261.5 -386.0 300.0 -427.0 356.5 -428.0 413.0 -427.0 452.0 -386.0 490.5 -345.0 492.0 -275.0 L492.0 -272.0 492.0 -272.0 M648.0 -273.0 L648.0 -273.0 648.0 -275.0 Q644.0 -414.0 571.0 -487.0 497.5 -559.5 397.0 -560.0 277.5 -554.0 224.0 -471.0 L224.0 -548.0 68.0 -548.0 68.0 164.0 224.0 164.0 224.0 -70.0 Q275.5 4.0 397.0 12.0 498.5 11.5 571.5 -61.0 644.5 -133.5 648.0 -272.0 L648.0 -273.0 648.0 -273.0" fill-rule="evenodd" stroke="none"/>
    </g>
    <g id="font_Gotham_Bold_o0">
      <path d="M484.5 -272.0 L484.5 -272.0 Q484.0 -210.0 446.5 -168.0 409.0 -125.5 341.0 -124.0 275.0 -126.0 236.0 -169.0 196.5 -212.0 195.5 -274.0 L195.5 -276.0 Q196.0 -338.0 233.5 -380.0 271.0 -422.5 339.0 -424.0 405.0 -422.0 444.0 -379.0 483.5 -336.0 484.5 -274.0 L484.5 -272.0 484.5 -272.0 M639.5 -274.0 L639.5 -274.0 639.5 -276.0 Q637.0 -396.5 554.5 -476.5 472.0 -557.0 341.0 -560.0 209.0 -556.5 126.0 -475.5 43.0 -394.5 40.5 -274.0 L40.5 -272.0 Q43.0 -151.5 125.5 -71.5 208.0 9.0 339.0 12.0 471.0 8.5 554.0 -72.5 637.0 -153.5 639.5 -274.0 L639.5 -274.0" fill-rule="evenodd" stroke="none"/>
    </g>
    <g id="font_Gotham_Bold_r0">
      <path d="M399.0 -392.5 L399.0 -392.5 399.0 -558.0 Q266.0 -557.5 224.0 -435.0 L224.0 -547.5 68.0 -547.5 68.0 0.0 224.0 0.0 224.0 -201.0 Q229.5 -394.0 390.5 -392.5 L399.0 -392.5 399.0 -392.5" fill-rule="evenodd" stroke="none"/>
    </g>
    <g id="font_Gotham_Bold_t0">
      <path d="M379.0 -24.5 L379.0 -24.5 379.0 -151.0 Q345.0 -132.0 302.0 -131.5 251.0 -131.5 252.0 -184.5 L252.0 -416.0 381.0 -416.0 381.0 -548.0 252.0 -548.0 252.0 -688.0 96.0 -688.0 96.0 -548.0 30.5 -548.0 30.5 -416.0 96.0 -416.0 96.0 -159.0 Q97.0 -64.5 140.5 -27.5 183.5 9.0 256.0 7.5 332.0 6.5 379.0 -24.5 L379.0 -24.5" fill-rule="evenodd" stroke="none"/>
    </g>
  </defs>
</svg>
