<?xml version="1.0" encoding="UTF-8" standalone="no"?>
<svg xmlns:xlink="http://www.w3.org/1999/xlink" height="31.4px" width="179.4px" xmlns="http://www.w3.org/2000/svg">
  <g transform="matrix(1.0, 0.0, 0.0, 1.0, 0.15, 0.45)">
    <use data-characterId="84" height="15.5" transform="matrix(1.5384, 0.0, 0.0, 1.5384, 5.0911, 4.3307)" width="109.85" xlink:href="#text0"/>
  </g>
  <defs>
    <g id="text0" transform="matrix(1.0, 0.0, 0.0, 1.0, -17.35, -0.8)">
      <g transform="matrix(1.0, 0.0, 0.0, 1.0, 16.05, 0.0)">
        <use fill="#ffffff" height="15.5" transform="matrix(0.0137, 0.0, 0.0, 0.0137, 0.0, 13.0)" width="109.85" xlink:href="#font_Gotham_Bold_D0"/>
        <use fill="#ffffff" height="15.5" transform="matrix(0.0137, 0.0, 0.0, 0.0137, 10.95, 13.0)" width="109.85" xlink:href="#font_Gotham_Bold_o0"/>
        <use fill="#ffffff" height="15.5" transform="matrix(0.0137, 0.0, 0.0, 0.0137, 19.9, 13.0)" width="109.85" xlink:href="#font_Gotham_Bold_w0"/>
        <use fill="#ffffff" height="15.5" transform="matrix(0.0137, 0.0, 0.0, 0.0137, 31.95, 13.0)" width="109.85" xlink:href="#font_Gotham_Bold_n0"/>
        <use fill="#ffffff" height="15.5" transform="matrix(0.0137, 0.0, 0.0, 0.0137, 40.7, 13.0)" width="109.85" xlink:href="#font_Gotham_Bold_l0"/>
        <use fill="#ffffff" height="15.5" transform="matrix(0.0137, 0.0, 0.0, 0.0137, 44.95, 13.0)" width="109.85" xlink:href="#font_Gotham_Bold_o0"/>
        <use fill="#ffffff" height="15.5" transform="matrix(0.0137, 0.0, 0.0, 0.0137, 54.2, 13.0)" width="109.85" xlink:href="#font_Gotham_Bold_a0"/>
        <use fill="#ffffff" height="15.5" transform="matrix(0.0137, 0.0, 0.0, 0.0137, 62.5, 13.0)" width="109.85" xlink:href="#font_Gotham_Bold_d0"/>
        <use fill="#ffffff" height="15.5" transform="matrix(0.0137, 0.0, 0.0, 0.0137, 76.15, 13.0)" width="109.85" xlink:href="#font_Gotham_Bold_P0"/>
        <use fill="#ffffff" height="15.5" transform="matrix(0.0137, 0.0, 0.0, 0.0137, 85.35, 13.0)" width="109.85" xlink:href="#font_Gotham_Bold_a0"/>
        <use fill="#ffffff" height="15.5" transform="matrix(0.0137, 0.0, 0.0, 0.0137, 93.65, 13.0)" width="109.85" xlink:href="#font_Gotham_Bold_g0"/>
        <use fill="#ffffff" height="15.5" transform="matrix(0.0137, 0.0, 0.0, 0.0137, 103.1, 13.0)" width="109.85" xlink:href="#font_Gotham_Bold_e0"/>
      </g>
    </g>
    <g id="font_Gotham_Bold_D0">
      <path d="M580.5 -356.0 L580.5 -356.0 Q579.0 -260.0 521.0 -203.0 463.0 -145.5 365.5 -144.0 L244.0 -144.0 244.0 -572.0 365.5 -572.0 Q463.0 -570.5 521.0 -512.0 579.0 -454.0 580.5 -358.0 L580.5 -356.0 580.5 -356.0 M747.5 -358.0 L747.5 -358.0 747.5 -360.0 Q745.0 -513.5 640.5 -613.0 536.5 -712.5 365.5 -716.0 L88.0 -716.0 88.0 0.0 365.5 0.0 Q536.5 -3.5 640.5 -104.0 745.0 -204.5 747.5 -358.0 L747.5 -358.0" fill-rule="evenodd" stroke="none"/>
    </g>
    <g id="font_Gotham_Bold_o0">
      <path d="M484.5 -272.0 L484.5 -272.0 Q484.0 -210.0 446.5 -168.0 409.0 -125.5 341.0 -124.0 275.0 -126.0 236.0 -169.0 196.5 -212.0 195.5 -274.0 L195.5 -276.0 Q196.0 -338.0 233.5 -380.0 271.0 -422.5 339.0 -424.0 405.0 -422.0 444.0 -379.0 483.5 -336.0 484.5 -274.0 L484.5 -272.0 484.5 -272.0 M639.5 -274.0 L639.5 -274.0 639.5 -276.0 Q637.0 -396.5 554.5 -476.5 472.0 -557.0 341.0 -560.0 209.0 -556.5 126.0 -475.5 43.0 -394.5 40.5 -274.0 L40.5 -272.0 Q43.0 -151.5 125.5 -71.5 208.0 9.0 339.0 12.0 471.0 8.5 554.0 -72.5 637.0 -153.5 639.5 -274.0 L639.5 -274.0" fill-rule="evenodd" stroke="none"/>
    </g>
    <g id="font_Gotham_Bold_w0">
      <path d="M857.0 -548.0 L857.0 -548.0 702.5 -548.0 612.5 -215.0 508.0 -552.0 374.0 -552.0 270.5 -216.5 182.5 -548.0 24.5 -548.0 193.5 4.0 333.0 4.0 440.5 -332.5 546.0 4.0 686.0 4.0 857.0 -548.0 857.0 -548.0" fill-rule="evenodd" stroke="none"/>
    </g>
    <g id="font_Gotham_Bold_n0">
      <path d="M572.0 0.0 L572.0 0.0 572.0 -354.0 Q567.0 -552.0 385.5 -560.0 326.5 -559.0 288.5 -532.5 250.0 -506.5 224.0 -470.5 L224.0 -548.0 68.0 -548.0 68.0 0.0 224.0 0.0 224.0 -305.5 Q228.0 -415.5 321.5 -416.0 413.5 -415.5 416.0 -305.0 L416.0 0.0 572.0 0.0 572.0 0.0" fill-rule="evenodd" stroke="none"/>
    </g>
    <g id="font_Gotham_Bold_l0">
      <path d="M232.0 0.0 L232.0 0.0 232.0 -748.0 76.0 -748.0 76.0 0.0 232.0 0.0 232.0 0.0" fill-rule="evenodd" stroke="none"/>
    </g>
    <g id="font_Gotham_Bold_a0">
      <path d="M394.5 -192.5 L394.5 -192.5 Q388.0 -101.5 273.0 -96.0 193.0 -97.5 188.0 -162.5 L188.0 -164.5 Q192.0 -239.5 295.5 -240.5 353.5 -239.5 394.5 -220.0 L394.5 -192.5 394.5 -192.5 M543.5 0.0 L543.5 0.0 543.5 -319.0 Q548.5 -550.0 297.5 -556.0 228.5 -555.5 178.5 -544.0 128.0 -532.5 83.5 -512.5 L123.0 -394.0 Q192.5 -423.0 275.0 -424.0 392.0 -422.0 392.5 -322.0 L392.5 -312.5 Q337.5 -334.5 258.5 -335.5 159.0 -336.0 98.5 -292.5 37.5 -249.0 36.0 -159.0 L36.0 -157.0 Q38.0 -74.5 92.0 -31.5 145.5 11.5 226.0 12.0 337.0 8.5 391.5 -58.0 L391.5 0.0 543.5 0.0 543.5 0.0" fill-rule="evenodd" stroke="none"/>
    </g>
    <g id="font_Gotham_Bold_d0">
      <path d="M466.0 -274.0 L466.0 -274.0 Q464.5 -203.5 427.0 -162.0 389.5 -121.0 333.5 -120.0 277.5 -121.0 239.5 -162.0 201.5 -203.0 200.0 -273.0 L200.0 -275.0 Q201.5 -345.5 239.5 -386.5 277.5 -427.0 333.5 -428.0 389.5 -427.0 427.0 -386.0 464.5 -345.0 466.0 -275.0 L466.0 -274.0 466.0 -274.0 M620.0 0.0 L620.0 0.0 620.0 -748.0 464.0 -748.0 464.0 -478.0 Q413.5 -552.0 293.5 -560.0 193.0 -559.5 120.5 -487.0 47.5 -414.5 44.0 -276.0 L44.0 -274.0 Q48.0 -134.5 121.0 -61.5 194.5 11.5 293.5 12.0 411.0 6.0 464.0 -77.0 L464.0 0.0 620.0 0.0 620.0 0.0" fill-rule="evenodd" stroke="none"/>
    </g>
    <g id="font_Gotham_Bold_P0">
      <path d="M492.0 -463.0 L492.0 -463.0 Q491.5 -416.5 459.5 -387.0 427.0 -357.0 368.0 -356.0 L244.0 -356.0 244.0 -572.0 365.0 -572.0 Q487.5 -570.5 492.0 -465.0 L492.0 -463.0 492.0 -463.0 M652.0 -466.0 L652.0 -466.0 652.0 -468.0 Q650.5 -579.0 579.0 -646.5 507.0 -714.0 378.0 -716.0 L88.0 -716.0 88.0 0.0 244.0 0.0 244.0 -216.0 363.0 -216.0 Q486.0 -216.0 567.5 -279.5 649.0 -342.5 652.0 -466.0 L652.0 -466.0" fill-rule="evenodd" stroke="none"/>
    </g>
    <g id="font_Gotham_Bold_g0">
      <path d="M468.5 -301.0 L468.5 -301.0 Q467.0 -244.5 429.5 -210.5 392.0 -176.5 333.5 -175.5 275.5 -176.5 238.0 -210.5 201.0 -244.0 200.0 -301.0 L200.0 -303.0 Q201.0 -359.5 238.0 -393.5 275.5 -427.5 333.5 -428.5 392.0 -427.5 429.5 -393.5 467.0 -359.5 468.5 -303.0 L468.5 -301.0 468.5 -301.0 M623.5 -124.5 L623.5 -124.5 623.5 -548.0 466.5 -548.0 466.5 -477.0 Q409.5 -553.0 288.5 -559.5 190.0 -559.0 119.0 -492.5 47.5 -426.0 44.0 -303.0 L44.0 -301.0 Q47.5 -179.0 118.0 -112.0 189.0 -45.0 288.5 -44.5 406.0 -47.5 468.5 -135.0 L468.5 -108.0 Q470.0 40.0 311.0 40.0 205.5 39.0 125.0 -8.5 L72.0 106.5 Q178.5 163.0 315.0 164.0 469.0 165.0 546.0 97.0 623.5 28.5 623.5 -124.5 L623.5 -124.5" fill-rule="evenodd" stroke="none"/>
    </g>
    <g id="font_Gotham_Bold_e0">
      <path d="M430.0 -319.5 L430.0 -319.5 195.5 -319.5 Q216.0 -427.0 314.5 -432.5 414.5 -426.5 430.0 -319.5 L430.0 -319.5 M581.5 -260.0 L581.5 -260.0 581.5 -262.0 Q582.0 -381.5 516.5 -468.5 451.5 -555.5 314.5 -559.5 192.5 -556.0 119.0 -475.0 45.0 -393.5 43.0 -274.5 L43.0 -272.5 Q45.5 -145.5 124.5 -68.0 203.5 9.5 329.5 11.5 478.0 8.0 554.0 -92.5 L465.0 -170.5 Q405.0 -114.0 332.0 -115.5 224.0 -116.5 197.5 -220.5 L579.5 -220.5 Q581.5 -239.5 581.5 -260.0 L581.5 -260.0" fill-rule="evenodd" stroke="none"/>
    </g>
  </defs>
</svg>
